<?xml version="1.0" encoding="UTF-8" standalone="no"?>
<!-- Generator: Adobe Illustrator 9.0, SVG Export Plug-In  -->
<svg
   xmlns:dc="http://purl.org/dc/elements/1.1/"
   xmlns:cc="http://web.resource.org/cc/"
   xmlns:rdf="http://www.w3.org/1999/02/22-rdf-syntax-ns#"
   xmlns:svg="http://www.w3.org/2000/svg"
   xmlns="http://www.w3.org/2000/svg"
   xmlns:sodipodi="http://sodipodi.sourceforge.net/DTD/sodipodi-0.dtd"
   xmlns:inkscape="http://www.inkscape.org/namespaces/inkscape"
   width="48pt"
   height="48pt"
   viewBox="0 0 48 48"
   xml:space="preserve"
   id="svg2"
   sodipodi:version="0.32"
   inkscape:version="0.44.1"
   sodipodi:docname="BlueRemote.svg"
   sodipodi:docbase="/home/mblaesing/src/BlueRemote/server"><metadata
   id="metadata81"><rdf:RDF><cc:Work
       rdf:about=""><dc:format>image/svg+xml</dc:format><dc:type
         rdf:resource="http://purl.org/dc/dcmitype/StillImage" /></cc:Work></rdf:RDF></metadata><defs
   id="defs79" /><sodipodi:namedview
   inkscape:window-height="798"
   inkscape:window-width="1363"
   inkscape:pageshadow="2"
   inkscape:pageopacity="0.0"
   guidetolerance="10.0"
   gridtolerance="10.0"
   objecttolerance="10.0"
   borderopacity="1.0"
   bordercolor="#666666"
   pagecolor="#ffffff"
   id="base"
   inkscape:zoom="6.5666667"
   inkscape:cx="17.778468"
   inkscape:cy="29.939894"
   inkscape:window-x="49"
   inkscape:window-y="199"
   inkscape:current-layer="svg2" />
	
	<g
   id="Layer_x0020_2"
   style="fill-rule:nonzero;clip-rule:nonzero;stroke:#000000;stroke-miterlimit:4;">
		<path
   style="fill:none;stroke:none;"
   d="M48,48H0V0h48v48z"
   id="path76" />
	</g>
<path
   style="fill:#314e6c;fill-opacity:1;stroke:black;stroke-width:0.80000001;stroke-miterlimit:4;stroke-dashoffset:0;stroke-opacity:1"
   d="M 43.29442,16.811647 C 43.489344,25.651055 40.188893,31.138551 31.793912,31.236012 C 23.30147,31.333474 20.390867,24.773897 20.293405,16.811647 C 20.195943,8.6544737 23.593856,2.3872817 31.793912,2.3872817 C 40.091431,2.3872817 43.099496,8.0697027 43.29442,16.811647 z "
   id="path2100"
   sodipodi:nodetypes="czzzz" /><path
   style="fill:none;fill-rule:evenodd;stroke:white;stroke-width:2.16000009;stroke-linecap:butt;stroke-linejoin:miter;stroke-miterlimit:4;stroke-dasharray:none;stroke-opacity:1"
   d="M 26.043661,11.743628 L 35.789854,21.294896 L 31.111681,26.265455 L 31.014219,7.3578397 L 35.984778,11.743628 L 26.433508,21.48982"
   id="path2992" /><g
   id="mouse"
   style="fill:#bababa;fill-rule:nonzero;stroke:black;stroke-miterlimit:4"
   transform="matrix(0.706199,0,0,0.706199,-0.324718,18.98314)">
		<g
   style="opacity:0.35"
   id="g5">
			<path
   style="fill:black;stroke:none"
   d="M 7.1,27.2 C 5.5,28.8 5.4,36.5 12.6,37.5 C 12.6,37.5 25.1,41.3 32.5,34 L 43,23 C 44.5,21.3 45.6,18.8 42,16.3 C 38.4,13.8 28,13.4 28,13.4 C 26,12.5 22.2,13.5 20.6,15.1 L 7,27.1 L 7.1,27.2 z "
   id="path7" />
		</g>
		<radialGradient
   id="aigrd1"
   cx="11.9805"
   cy="9.2158003"
   r="30.375"
   fx="11.9805"
   fy="9.2158003"
   gradientUnits="userSpaceOnUse">
			<stop
   offset="0"
   style="stop-color:#EFEFEF"
   id="stop10" />
			<stop
   offset="1"
   style="stop-color:#6D6D6D"
   id="stop12" />
		</radialGradient>
		<path
   style="fill:url(#aigrd1);stroke-width:4;stroke-linecap:round;stroke-linejoin:round"
   d="M 38.3,17.5 C 38.3,17.3 38.2,17 38,16.6 C 36.8,14.5 32.8,13.2 28.9,12.4 C 28.3,12 27.7,11.6 26.8,11.5 C 26.1,11.4 25.5,11.5 25,11.8 C 24.1,11.7 23.2,11.6 22.5,11.6 C 18.9,11.6 8.3,11.5 6.7,27.2 C 6.7,27.7 6.7,28.2 6.8,28.6 C 5.4,35 19.7,39 26,33.2 L 38,21.3 C 39,20.3 38.7,18.6 38.3,17.5 L 38.3,17.5 z "
   id="path14" />
		<linearGradient
   id="aigrd2"
   gradientUnits="userSpaceOnUse"
   x1="16.3447"
   y1="30.360399"
   x2="34.009102"
   y2="13.0483">
			<stop
   offset="0"
   style="stop-color:#686868"
   id="stop17" />
			<stop
   offset="1"
   style="stop-color:#6D6D6D"
   id="stop19" />
		</linearGradient>
		<path
   style="fill:url(#aigrd2);stroke:none"
   d="M 38,16.6 L 7.8,26.5 C 2.2,34.1 19,39.7 26,33.2 L 38,21.3 C 39.5,19.8 38,16.6 38,16.6 L 38,16.6 z "
   id="path21" />
		<path
   style="fill:#f0f0f0;stroke:none"
   d="M 38,17.1 C 36,13.7 26.1,12.1 22.5,12.1 C 19,12.1 8.3,12 6.8,27.7 C 6.3,33.1 13.2,36.6 18.6,34.9 C 23.9,33.2 24.1,24.9 28.5,21.5 C 32.9,18.1 40,20.6 38,17.2 L 38,17.1 z "
   id="path23" />
		<linearGradient
   id="aigrd3"
   gradientUnits="userSpaceOnUse"
   x1="6.8618002"
   y1="27.3535"
   x2="39.192001"
   y2="15.62">
			<stop
   offset="0"
   style="stop-color:#FCFCFC"
   id="stop26" />
			<stop
   offset="1"
   style="stop-color:#BBBBBB"
   id="stop28" />
		</linearGradient>
		<path
   style="fill:url(#aigrd3);stroke:none"
   d="M 38,16.6 C 36,13.2 26.1,11.6 22.5,11.6 C 18.9,11.6 8.3,11.5 6.7,27.2 C 6.2,32.6 13.1,36.1 18.5,34.4 C 23.8,32.7 24,24.4 28.4,21 C 32.8,17.6 39.9,20.1 37.9,16.7 L 38,16.6 z "
   id="path30" />
		<linearGradient
   id="aigrd4"
   gradientUnits="userSpaceOnUse"
   x1="14.9478"
   y1="19.6626"
   x2="37.1408"
   y2="11.6082">
			<stop
   offset="0"
   style="stop-color:#EBEBEB"
   id="stop33" />
			<stop
   offset="1"
   style="stop-color:#818181"
   id="stop35" />
		</linearGradient>
		<path
   style="fill:url(#aigrd4);stroke:none"
   d="M 38.2,17.6 C 38.5,19.2 31.9,18.3 30.4,19.9 C 29.2,17.7 24.3,15.4 20.6,14.6 C 17,13.8 12.6,14.4 12.6,14.4 C 18.7,8.8 37.7,12.6 38.2,17.6 z "
   id="path37" />
		<path
   style="opacity:0.3;fill:white;stroke:none"
   d="M 30.7,21.6 C 34.7,19.6 35.4,20.9 37.8,18.9 C 36.2,21.1 34,20.5 31.6,21.7 L 30.6,21.6 L 30.7,21.6 z "
   id="path39" />
		<path
   style="opacity:0.3;fill:black;stroke:none"
   d="M 30.5,19.9 L 30.7,21.7 C 34.9,19.6 35.4,21.4 38.2,18.6 C 35.1,20.7 33.9,19.6 30.9,20.9 L 30.4,20 L 30.5,19.9 z "
   id="path41" />
		<path
   style="opacity:0.3;fill:black;stroke:none"
   d="M 20.6,14.6 L 21.2,14.8 C 24.1,12.3 31.9,13.3 31.9,13.3 C 31.9,13.3 23.6,11.8 20.6,14.7 L 20.6,14.6 z "
   id="path43" />
		<g
   id="g45">
			<radialGradient
   id="aigrd5"
   cx="14.5474"
   cy="15.9844"
   r="4.5099001"
   fx="14.5474"
   fy="15.9844"
   gradientTransform="matrix(0.907,0.4211,-0.4211,0.907,19.2898,-10.214)"
   gradientUnits="userSpaceOnUse">
				<stop
   offset="0"
   style="stop-color:#EFEFEF"
   id="stop48" />
				<stop
   offset="1"
   style="stop-color:#6D6D6D"
   id="stop50" />
			</radialGradient>
			<path
   style="fill:url(#aigrd5);stroke:none"
   d="M 26.8,11.2 C 25,10.9 23.9,12.1 23.5,13.1 C 24,13.7 24.5,13.9 25.7,13.8 C 27.5,13.7 28.3,13.6 29.5,12.8 C 28.9,12.2 28,11.3 26.8,11.1 L 26.8,11.2 z "
   id="path52" />
			<radialGradient
   id="aigrd6"
   cx="12.4722"
   cy="15.9321"
   r="6.1648998"
   fx="12.4722"
   fy="15.9321"
   gradientTransform="matrix(0.907,0.4211,-0.4211,0.907,19.2898,-10.214)"
   gradientUnits="userSpaceOnUse">
				<stop
   offset="0"
   style="stop-color:#9E9E9E"
   id="stop55" />
				<stop
   offset="1"
   style="stop-color:#535353"
   id="stop57" />
			</radialGradient>
			<path
   style="fill:url(#aigrd6);stroke:none"
   d="M 27.6,11.9 C 26.5,11.7 25.9,13.2 25.7,13.9 C 26.8,13.8 28.6,13.6 29.3,12.8 C 29,12.4 28.4,12.1 27.6,12 L 27.6,11.9 z "
   id="path59" />
		</g>
		<g
   style="stroke:none"
   id="g61">
			<path
   d="M 10.9,30.4 C 10.9,30.4 11,30.4 11,30.4 C 11,30.4 11.1,30.3 11.1,30.2 L 11.3,29.7 L 11.4,29.7 L 11.2,30.2 C 11.2,30.3 11.1,30.4 11.1,30.4 C 11,30.4 11,30.4 10.9,30.4 L 10.9,30.3 L 10.9,30.4 z M 11.4,29.5 C 11.4,29.5 11.5,29.4 11.5,29.5 C 11.5,29.5 11.6,29.5 11.5,29.6 C 11.5,29.6 11.4,29.7 11.4,29.6 C 11.4,29.6 11.4,29.6 11.4,29.5 z "
   id="path63" />
			<path
   d="M 11.6,29.6 C 11.6,29.6 11.6,29.5 11.7,29.5 C 11.7,29.5 11.8,29.6 11.7,29.6 C 11.7,29.6 11.6,29.7 11.6,29.6 C 11.6,29.6 11.5,29.6 11.6,29.5 L 11.6,29.6 z M 11.3,30.4 L 11.5,29.8 L 11.6,29.8 L 11.4,30.4 L 11.3,30.4 z "
   id="path65" />
			<path
   d="M 11.6,30 C 11.6,29.9 11.6,29.9 11.7,29.8 L 11.8,29.8 L 11.8,29.9 L 11.8,29.9 C 11.8,29.9 11.9,29.8 12,29.8 C 12.1,29.8 12.1,29.9 12.1,30 L 12.1,30 C 12.1,30 12.2,30 12.2,29.9 C 12.2,29.9 12.3,29.9 12.3,29.9 C 12.4,29.9 12.5,30 12.4,30.2 L 12.3,30.5 L 12.2,30.5 L 12.3,30.2 C 12.3,30.1 12.3,30 12.3,30 C 12.2,30 12.2,30 12.1,30.1 C 12.1,30.1 12.1,30.1 12.1,30.1 L 12,30.4 L 11.9,30.4 L 12,30.1 C 12,30 12,29.9 12,29.9 C 11.9,29.9 11.9,29.9 11.8,30 C 11.8,30 11.8,30 11.8,30.1 L 11.7,30.4 L 11.6,30.4 L 11.8,30 L 11.6,30 z "
   id="path67" />
			<path
   d="M 12.5,30.3 C 12.5,30.2 12.5,30.2 12.6,30.1 L 12.7,30.1 L 12.7,30.2 L 12.7,30.2 C 12.8,30.2 12.8,30.1 12.9,30.1 C 13,30.1 13,30.2 13,30.3 L 13,30.3 C 13,30.3 13.1,30.3 13.1,30.2 C 13.1,30.2 13.2,30.2 13.2,30.2 C 13.3,30.2 13.4,30.3 13.3,30.5 L 13.1,31 L 13,31 L 13.1,30.7 C 13.2,30.6 13.1,30.5 13.1,30.5 C 13,30.5 13,30.5 12.9,30.6 C 12.9,30.6 12.9,30.6 12.9,30.7 L 12.7,31.1 L 12.6,31.1 L 12.8,30.8 C 12.8,30.7 12.8,30.6 12.8,30.6 C 12.7,30.6 12.7,30.6 12.6,30.7 C 12.6,30.7 12.6,30.7 12.6,30.7 L 12.5,31 L 12.4,31 L 12.6,30.6 L 12.5,30.3 z "
   id="path69" />
			<path
   d="M 13.7,31 C 13.7,31.1 13.7,31.1 13.6,31.1 L 13.5,31.1 L 13.5,31 L 13.5,31 C 13.4,31 13.4,31.1 13.3,31 C 13.2,31 13.2,30.9 13.2,30.8 C 13.3,30.7 13.4,30.6 13.7,30.7 L 13.7,30.7 C 13.7,30.6 13.8,30.6 13.6,30.5 C 13.5,30.5 13.5,30.5 13.4,30.5 L 13.4,30.4 C 13.5,30.4 13.5,30.4 13.6,30.4 C 13.8,30.5 13.8,30.6 13.7,30.7 L 13.7,31 z M 13.7,30.8 C 13.6,30.8 13.4,30.7 13.4,30.9 C 13.4,31 13.4,31 13.5,31 C 13.6,31 13.6,31 13.7,31 C 13.7,31 13.7,31 13.7,31 L 13.7,30.9 L 13.7,30.8 z "
   id="path71" />
			<path
   d="M 14.2,31.3 C 14.2,31.3 14.1,31.3 14,31.3 C 13.8,31.2 13.8,31.1 13.9,30.9 C 14,30.7 14.2,30.6 14.4,30.7 C 14.5,30.7 14.5,30.8 14.5,30.8 L 14.4,30.9 C 14.4,30.9 14.3,30.8 14.3,30.8 C 14.2,30.8 14,30.8 14,31 C 13.9,31.1 14,31.2 14.1,31.3 C 14.2,31.3 14.2,31.3 14.2,31.3 L 14.2,31.4 L 14.2,31.3 z "
   id="path73" />
		</g>
	</g></svg>